<svg width="70" height="70" viewBox="0 0 70 70" fill="none" xmlns="http://www.w3.org/2000/svg">
<path d="M49.5833 8.75H14.5833C11.3458 8.75 8.75 11.375 8.75 14.5833V55.4167C8.75 58.625 11.3458 61.25 14.5833 61.25H55.4167C58.625 61.25 61.25 58.625 61.25 55.4167V20.4167L49.5833 8.75ZM35 55.4167C30.1583 55.4167 26.25 51.5083 26.25 46.6667C26.25 41.825 30.1583 37.9167 35 37.9167C39.8417 37.9167 43.75 41.825 43.75 46.6667C43.75 51.5083 39.8417 55.4167 35 55.4167ZM43.75 26.25H14.5833V14.5833H43.75V26.25Z" fill="white"/>
</svg>
